<mxfile host="app.diagrams.net" modified="2022-06-21T13:35:49.605Z" agent="5.0 (Macintosh; Intel Mac OS X 10_15_7) AppleWebKit/537.36 (KHTML, like Gecko) Chrome/102.0.0.0 Safari/537.36" etag="0s8P-O0ohVqygaWrIeXa" version="20.0.1" type="github">
  <diagram id="PWz0Cm15_6Ju_F6uPyTq" name="Page-1">
    <mxGraphModel dx="2629" dy="855" grid="1" gridSize="10" guides="1" tooltips="1" connect="1" arrows="1" fold="1" page="1" pageScale="1" pageWidth="850" pageHeight="1100" math="0" shadow="0">
      <root>
        <mxCell id="0" />
        <mxCell id="1" parent="0" />
        <mxCell id="K2bOwGQRSZ3-CSx8ll-e-17" value="" style="rounded=0;whiteSpace=wrap;html=1;" vertex="1" parent="1">
          <mxGeometry x="-770" y="670" width="850" height="590" as="geometry" />
        </mxCell>
        <mxCell id="GisYpRV7avzfYeUy0QzY-2" value="RPC" style="edgeStyle=orthogonalEdgeStyle;rounded=0;orthogonalLoop=1;jettySize=auto;html=1;entryX=0;entryY=0.5;entryDx=0;entryDy=0;startArrow=classic;startFill=1;" parent="1" source="jVakzNksEXZiFuCBjzgW-1" target="GisYpRV7avzfYeUy0QzY-1" edge="1">
          <mxGeometry relative="1" as="geometry" />
        </mxCell>
        <mxCell id="GisYpRV7avzfYeUy0QzY-4" style="edgeStyle=orthogonalEdgeStyle;rounded=0;orthogonalLoop=1;jettySize=auto;html=1;entryX=0.5;entryY=0;entryDx=0;entryDy=0;" parent="1" source="jVakzNksEXZiFuCBjzgW-1" target="jVakzNksEXZiFuCBjzgW-5" edge="1">
          <mxGeometry relative="1" as="geometry" />
        </mxCell>
        <mxCell id="jVakzNksEXZiFuCBjzgW-1" value="Web App Client" style="rounded=0;whiteSpace=wrap;html=1;" parent="1" vertex="1">
          <mxGeometry x="130" y="60" width="220" height="140" as="geometry" />
        </mxCell>
        <mxCell id="GisYpRV7avzfYeUy0QzY-5" value="Store Files" style="edgeStyle=orthogonalEdgeStyle;rounded=0;orthogonalLoop=1;jettySize=auto;html=1;entryX=0;entryY=0.5;entryDx=0;entryDy=0;" parent="1" source="jVakzNksEXZiFuCBjzgW-5" target="GisYpRV7avzfYeUy0QzY-6" edge="1">
          <mxGeometry relative="1" as="geometry">
            <mxPoint x="514.94" y="291.05999999999995" as="targetPoint" />
          </mxGeometry>
        </mxCell>
        <mxCell id="jVakzNksEXZiFuCBjzgW-5" value="IPFS Gateway" style="rounded=0;whiteSpace=wrap;html=1;" parent="1" vertex="1">
          <mxGeometry x="180" y="280" width="120" height="20" as="geometry" />
        </mxCell>
        <mxCell id="GisYpRV7avzfYeUy0QzY-1" value="Node" style="rounded=0;whiteSpace=wrap;html=1;" parent="1" vertex="1">
          <mxGeometry x="510" y="90" width="145" height="80" as="geometry" />
        </mxCell>
        <mxCell id="GisYpRV7avzfYeUy0QzY-3" value="Blockchain Storage" style="rounded=0;whiteSpace=wrap;html=1;" parent="1" vertex="1">
          <mxGeometry x="510" y="150" width="145" height="20" as="geometry" />
        </mxCell>
        <mxCell id="GisYpRV7avzfYeUy0QzY-6" value="IPFS" style="rounded=0;whiteSpace=wrap;html=1;" parent="1" vertex="1">
          <mxGeometry x="500" y="250" width="145" height="80" as="geometry" />
        </mxCell>
        <mxCell id="GisYpRV7avzfYeUy0QzY-7" value="&lt;h1&gt;Gateways&lt;/h1&gt;&lt;p style=&quot;box-sizing: border-box ; color: rgb(63 , 66 , 70) ; font-family: &amp;#34;manrope&amp;#34; , sans-serif , &amp;#34;apple color emoji&amp;#34; , &amp;#34;segoe ui emoji&amp;#34; , &amp;#34;segoe ui symbol&amp;#34; ; font-size: 14px&quot;&gt;There are 2 ways to upload a file to IPFS:&lt;/p&gt;&lt;ul style=&quot;box-sizing: border-box ; color: rgb(63 , 66 , 70) ; font-family: &amp;#34;manrope&amp;#34; , sans-serif , &amp;#34;apple color emoji&amp;#34; , &amp;#34;segoe ui emoji&amp;#34; , &amp;#34;segoe ui symbol&amp;#34; ; font-size: 14px&quot;&gt;&lt;li style=&quot;box-sizing: border-box ; overflow-wrap: break-word&quot;&gt;using a local IPFS node&lt;/li&gt;&lt;li style=&quot;box-sizing: border-box ; overflow-wrap: break-word&quot;&gt;using a remote&amp;nbsp;&lt;a href=&quot;https://docs.ipfs.io/concepts/ipfs-gateway/#authenticated-gateways&quot; target=&quot;_blank&quot; style=&quot;box-sizing: border-box&quot;&gt;IPFS W3Authed Gateway&lt;/a&gt;&lt;/li&gt;&lt;/ul&gt;&lt;p&gt;&lt;br&gt;&lt;/p&gt;&lt;p&gt;https://ipfs.github.io/public-gateway-checker/&lt;/p&gt;" style="text;html=1;strokeColor=none;fillColor=none;spacing=5;spacingTop=-20;whiteSpace=wrap;overflow=hidden;rounded=0;" parent="1" vertex="1">
          <mxGeometry x="790" y="80" width="300" height="280" as="geometry" />
        </mxCell>
        <mxCell id="GisYpRV7avzfYeUy0QzY-8" value="IPFS Content CID" style="rounded=0;whiteSpace=wrap;html=1;" parent="1" vertex="1">
          <mxGeometry x="510" y="90" width="145" height="20" as="geometry" />
        </mxCell>
        <mxCell id="K2bOwGQRSZ3-CSx8ll-e-1" value="" style="rounded=0;whiteSpace=wrap;html=1;" vertex="1" parent="1">
          <mxGeometry x="-710" y="730" width="310" height="180" as="geometry" />
        </mxCell>
        <mxCell id="K2bOwGQRSZ3-CSx8ll-e-2" value="Substrate" style="text;html=1;strokeColor=none;fillColor=none;align=center;verticalAlign=middle;whiteSpace=wrap;rounded=0;" vertex="1" parent="1">
          <mxGeometry x="-590" y="700" width="60" height="30" as="geometry" />
        </mxCell>
        <mxCell id="K2bOwGQRSZ3-CSx8ll-e-3" value="Storage" style="rounded=0;whiteSpace=wrap;html=1;" vertex="1" parent="1">
          <mxGeometry x="-700" y="840" width="110" height="60" as="geometry" />
        </mxCell>
        <mxCell id="K2bOwGQRSZ3-CSx8ll-e-4" value="WASM Runtime" style="rounded=0;whiteSpace=wrap;html=1;" vertex="1" parent="1">
          <mxGeometry x="-700" y="880" width="110" height="20" as="geometry" />
        </mxCell>
        <mxCell id="K2bOwGQRSZ3-CSx8ll-e-5" value="Consensus" style="rounded=0;whiteSpace=wrap;html=1;" vertex="1" parent="1">
          <mxGeometry x="-580" y="840" width="80" height="60" as="geometry" />
        </mxCell>
        <mxCell id="K2bOwGQRSZ3-CSx8ll-e-6" value="P2P networking" style="rounded=0;whiteSpace=wrap;html=1;" vertex="1" parent="1">
          <mxGeometry x="-700" y="740" width="80" height="60" as="geometry" />
        </mxCell>
        <mxCell id="K2bOwGQRSZ3-CSx8ll-e-7" value="RPC" style="rounded=0;whiteSpace=wrap;html=1;" vertex="1" parent="1">
          <mxGeometry x="-490" y="740" width="80" height="60" as="geometry" />
        </mxCell>
        <mxCell id="K2bOwGQRSZ3-CSx8ll-e-8" value="Telemetry" style="rounded=0;whiteSpace=wrap;html=1;" vertex="1" parent="1">
          <mxGeometry x="-595" y="740" width="80" height="60" as="geometry" />
        </mxCell>
        <mxCell id="K2bOwGQRSZ3-CSx8ll-e-9" value="Native Runtume" style="rounded=0;whiteSpace=wrap;html=1;dashed=1;" vertex="1" parent="1">
          <mxGeometry x="-490" y="840" width="80" height="60" as="geometry" />
        </mxCell>
        <mxCell id="K2bOwGQRSZ3-CSx8ll-e-10" value="" style="rounded=0;whiteSpace=wrap;html=1;" vertex="1" parent="1">
          <mxGeometry x="-260" y="730" width="310" height="180" as="geometry" />
        </mxCell>
        <mxCell id="K2bOwGQRSZ3-CSx8ll-e-11" value="dApp Front-end" style="text;html=1;strokeColor=none;fillColor=none;align=center;verticalAlign=middle;whiteSpace=wrap;rounded=0;" vertex="1" parent="1">
          <mxGeometry x="-135" y="700" width="60" height="30" as="geometry" />
        </mxCell>
        <mxCell id="K2bOwGQRSZ3-CSx8ll-e-12" value="Substrate-lib" style="rounded=0;whiteSpace=wrap;html=1;" vertex="1" parent="1">
          <mxGeometry x="-245" y="740" width="80" height="60" as="geometry" />
        </mxCell>
        <mxCell id="K2bOwGQRSZ3-CSx8ll-e-13" value="Components" style="rounded=0;whiteSpace=wrap;html=1;" vertex="1" parent="1">
          <mxGeometry x="-150" y="740" width="80" height="60" as="geometry" />
        </mxCell>
        <mxCell id="K2bOwGQRSZ3-CSx8ll-e-14" value="Redux" style="rounded=0;whiteSpace=wrap;html=1;" vertex="1" parent="1">
          <mxGeometry x="-50" y="740" width="80" height="60" as="geometry" />
        </mxCell>
        <mxCell id="K2bOwGQRSZ3-CSx8ll-e-15" value="WebSocket :9944" style="edgeStyle=orthogonalEdgeStyle;rounded=0;orthogonalLoop=1;jettySize=auto;html=1;entryX=0;entryY=0.5;entryDx=0;entryDy=0;startArrow=classic;startFill=1;" edge="1" parent="1" source="K2bOwGQRSZ3-CSx8ll-e-7" target="K2bOwGQRSZ3-CSx8ll-e-12">
          <mxGeometry relative="1" as="geometry" />
        </mxCell>
        <mxCell id="K2bOwGQRSZ3-CSx8ll-e-16" value="VPC Linux 20.04" style="text;html=1;strokeColor=none;fillColor=none;align=center;verticalAlign=middle;whiteSpace=wrap;rounded=0;" vertex="1" parent="1">
          <mxGeometry x="-130.62" y="1020" width="98.75" height="30" as="geometry" />
        </mxCell>
        <mxCell id="K2bOwGQRSZ3-CSx8ll-e-18" value="" style="sketch=0;pointerEvents=1;shadow=0;dashed=0;html=1;strokeColor=none;fillColor=#DF8C42;labelPosition=center;verticalLabelPosition=bottom;verticalAlign=top;align=center;outlineConnect=0;shape=mxgraph.veeam2.linux;" vertex="1" parent="1">
          <mxGeometry x="40" y="680" width="30" height="30" as="geometry" />
        </mxCell>
        <mxCell id="K2bOwGQRSZ3-CSx8ll-e-19" value="" style="rounded=0;whiteSpace=wrap;html=1;" vertex="1" parent="1">
          <mxGeometry x="-222.5" y="1090" width="280" height="150" as="geometry" />
        </mxCell>
        <mxCell id="K2bOwGQRSZ3-CSx8ll-e-20" value="" style="sketch=0;aspect=fixed;html=1;points=[];align=center;image;fontSize=12;image=img/lib/mscae/Docker.svg;" vertex="1" parent="1">
          <mxGeometry x="27.5" y="1090" width="30" height="24.6" as="geometry" />
        </mxCell>
        <mxCell id="K2bOwGQRSZ3-CSx8ll-e-21" value="Tensorflow Servable" style="rounded=0;whiteSpace=wrap;html=1;" vertex="1" parent="1">
          <mxGeometry x="-212.5" y="1145" width="100" height="40" as="geometry" />
        </mxCell>
        <mxCell id="K2bOwGQRSZ3-CSx8ll-e-22" value="Loader &lt;br&gt;(Session Bundle)" style="rounded=0;whiteSpace=wrap;html=1;" vertex="1" parent="1">
          <mxGeometry x="-212.5" y="1190" width="100" height="40" as="geometry" />
        </mxCell>
        <mxCell id="K2bOwGQRSZ3-CSx8ll-e-23" value="Loader &lt;br&gt;(Session Bundle)" style="rounded=0;whiteSpace=wrap;html=1;" vertex="1" parent="1">
          <mxGeometry x="-72.5" y="1190" width="100" height="40" as="geometry" />
        </mxCell>
        <mxCell id="K2bOwGQRSZ3-CSx8ll-e-24" value="Dynamic Manager" style="rounded=0;whiteSpace=wrap;html=1;" vertex="1" parent="1">
          <mxGeometry x="-212.5" y="1100" width="100" height="40" as="geometry" />
        </mxCell>
        <mxCell id="K2bOwGQRSZ3-CSx8ll-e-25" value="ServableHandle&lt;br&gt;(Session Bundle)" style="rounded=0;whiteSpace=wrap;html=1;" vertex="1" parent="1">
          <mxGeometry x="-72.5" y="1140" width="100" height="40" as="geometry" />
        </mxCell>
        <mxCell id="K2bOwGQRSZ3-CSx8ll-e-26" value="Tensorflow Serving" style="text;html=1;strokeColor=none;fillColor=none;align=center;verticalAlign=middle;whiteSpace=wrap;rounded=0;" vertex="1" parent="1">
          <mxGeometry x="-136.56" y="1063" width="108.13" height="30" as="geometry" />
        </mxCell>
        <mxCell id="K2bOwGQRSZ3-CSx8ll-e-27" value="API:&lt;br&gt;&amp;nbsp;HOST:8501/v1/models/model" style="edgeStyle=orthogonalEdgeStyle;rounded=0;orthogonalLoop=1;jettySize=auto;html=1;entryX=0.75;entryY=0;entryDx=0;entryDy=0;startArrow=classic;startFill=1;" edge="1" parent="1" source="K2bOwGQRSZ3-CSx8ll-e-28" target="K2bOwGQRSZ3-CSx8ll-e-19">
          <mxGeometry relative="1" as="geometry" />
        </mxCell>
        <mxCell id="K2bOwGQRSZ3-CSx8ll-e-28" value="Tensorflow-lib" style="rounded=0;whiteSpace=wrap;html=1;" vertex="1" parent="1">
          <mxGeometry x="-52.5" y="820" width="80" height="60" as="geometry" />
        </mxCell>
        <mxCell id="K2bOwGQRSZ3-CSx8ll-e-29" value="" style="rounded=0;whiteSpace=wrap;html=1;" vertex="1" parent="1">
          <mxGeometry x="-705" y="1080" width="125" height="150" as="geometry" />
        </mxCell>
        <mxCell id="K2bOwGQRSZ3-CSx8ll-e-30" value="IPFS Node" style="text;html=1;strokeColor=none;fillColor=none;align=center;verticalAlign=middle;whiteSpace=wrap;rounded=0;" vertex="1" parent="1">
          <mxGeometry x="-698.13" y="1050" width="108.13" height="30" as="geometry" />
        </mxCell>
        <mxCell id="K2bOwGQRSZ3-CSx8ll-e-31" value="" style="sketch=0;aspect=fixed;html=1;points=[];align=center;image;fontSize=12;image=img/lib/mscae/Docker.svg;" vertex="1" parent="1">
          <mxGeometry x="-270" y="1093" width="30" height="24.6" as="geometry" />
        </mxCell>
        <mxCell id="K2bOwGQRSZ3-CSx8ll-e-32" value="API:&lt;br&gt;HOST:5001/api/v0/swarm/peers" style="edgeStyle=orthogonalEdgeStyle;rounded=0;orthogonalLoop=1;jettySize=auto;html=1;" edge="1" parent="1" source="K2bOwGQRSZ3-CSx8ll-e-33" target="K2bOwGQRSZ3-CSx8ll-e-29">
          <mxGeometry x="0.032" y="-10" relative="1" as="geometry">
            <Array as="points">
              <mxPoint x="-205" y="970" />
              <mxPoint x="-645" y="970" />
            </Array>
            <mxPoint as="offset" />
          </mxGeometry>
        </mxCell>
        <mxCell id="K2bOwGQRSZ3-CSx8ll-e-33" value="IPFS lib" style="rounded=0;whiteSpace=wrap;html=1;" vertex="1" parent="1">
          <mxGeometry x="-245" y="830" width="80" height="60" as="geometry" />
        </mxCell>
        <mxCell id="K2bOwGQRSZ3-CSx8ll-e-34" value="Full Node" style="rounded=0;whiteSpace=wrap;html=1;" vertex="1" parent="1">
          <mxGeometry x="-625" y="340" width="120" height="60" as="geometry" />
        </mxCell>
        <mxCell id="K2bOwGQRSZ3-CSx8ll-e-35" value="Light Node" style="rounded=0;whiteSpace=wrap;html=1;" vertex="1" parent="1">
          <mxGeometry x="-295" y="340" width="120" height="60" as="geometry" />
        </mxCell>
        <mxCell id="K2bOwGQRSZ3-CSx8ll-e-36" value="&lt;h1&gt;&lt;span style=&quot;background-color: initial;&quot;&gt;Contains&lt;/span&gt;&lt;/h1&gt;&lt;div&gt;&lt;span style=&quot;font-size: 12px; font-weight: 400;&quot;&gt;IPFS Cluster&lt;/span&gt;&lt;/div&gt;&lt;div&gt;&lt;span style=&quot;font-size: 12px; font-weight: 400;&quot;&gt;IPFS Node&lt;/span&gt;&lt;/div&gt;&lt;div&gt;&lt;span style=&quot;font-size: 12px; font-weight: 400;&quot;&gt;Tensorflow Serving&lt;/span&gt;&lt;/div&gt;&lt;div&gt;Substrate Node&lt;/div&gt;&lt;div&gt;dApp front-end&lt;/div&gt;&lt;div&gt;&lt;span style=&quot;font-size: 12px; font-weight: 400;&quot;&gt;&lt;br&gt;&lt;/span&gt;&lt;/div&gt;&lt;h1&gt;&lt;span style=&quot;font-size: 12px; font-weight: 400;&quot;&gt;&lt;br&gt;&lt;/span&gt;&lt;/h1&gt;" style="text;html=1;strokeColor=none;fillColor=none;spacing=5;spacingTop=-20;whiteSpace=wrap;overflow=hidden;rounded=0;" vertex="1" parent="1">
          <mxGeometry x="-630" y="400" width="190" height="120" as="geometry" />
        </mxCell>
        <mxCell id="K2bOwGQRSZ3-CSx8ll-e-37" value="&lt;h1&gt;&lt;span style=&quot;background-color: initial;&quot;&gt;Contains&lt;/span&gt;&lt;/h1&gt;&lt;div&gt;&lt;span style=&quot;font-size: 12px; font-weight: 400;&quot;&gt;IPFS Node&lt;/span&gt;&lt;/div&gt;&lt;div&gt;dApp front-end&lt;/div&gt;&lt;div&gt;(Connects to Full Node via REST)&lt;/div&gt;&lt;h1&gt;&lt;span style=&quot;font-size: 12px; font-weight: 400;&quot;&gt;&lt;br&gt;&lt;/span&gt;&lt;/h1&gt;" style="text;html=1;strokeColor=none;fillColor=none;spacing=5;spacingTop=-20;whiteSpace=wrap;overflow=hidden;rounded=0;" vertex="1" parent="1">
          <mxGeometry x="-302.5" y="400" width="190" height="120" as="geometry" />
        </mxCell>
        <mxCell id="K2bOwGQRSZ3-CSx8ll-e-38" value="" style="rounded=0;whiteSpace=wrap;html=1;" vertex="1" parent="1">
          <mxGeometry x="-535" y="1080" width="125" height="150" as="geometry" />
        </mxCell>
        <mxCell id="K2bOwGQRSZ3-CSx8ll-e-39" value="IPFS Cluster" style="text;html=1;strokeColor=none;fillColor=none;align=center;verticalAlign=middle;whiteSpace=wrap;rounded=0;" vertex="1" parent="1">
          <mxGeometry x="-526.56" y="1050" width="108.13" height="30" as="geometry" />
        </mxCell>
        <mxCell id="K2bOwGQRSZ3-CSx8ll-e-40" value="API:&lt;br&gt;HOST:5001/api/v0/swarm/peers" style="edgeStyle=orthogonalEdgeStyle;rounded=0;orthogonalLoop=1;jettySize=auto;html=1;entryX=0.5;entryY=1;entryDx=0;entryDy=0;" edge="1" parent="1" target="K2bOwGQRSZ3-CSx8ll-e-39">
          <mxGeometry x="0.032" y="-10" relative="1" as="geometry">
            <mxPoint x="-194.9599999999998" y="900" as="sourcePoint" />
            <mxPoint x="-634.96" y="1090" as="targetPoint" />
            <Array as="points">
              <mxPoint x="-195" y="1030" />
              <mxPoint x="-470" y="1030" />
              <mxPoint x="-470" y="1080" />
            </Array>
            <mxPoint as="offset" />
          </mxGeometry>
        </mxCell>
      </root>
    </mxGraphModel>
  </diagram>
</mxfile>
